<svg xmlns="http://www.w3.org/2000/svg" viewBox="0 -12 390 302" width="390" height="302"><path d="M0 290V92H14V78Q32 52 50 78V92H128V70Q170 30 212 70V92H292V70Q322 40 352 70V92H362V40Q368 26 374 40V92H390V290Z" fill="#A6D8F7"/><rect x="6" y="92" width="78" height="210" fill="#FFF4E0" stroke="#1F2A5A" stroke-width="4" stroke-linejoin="round"/><path d="M10 94Q45 46 80 94Z" fill="#7CC7FF" stroke="#1F2A5A" stroke-width="4" stroke-linejoin="round"/><path d="M45 70V58" stroke="#1F2A5A" stroke-width="3.5" stroke-linecap="round"/><circle cx="45" cy="54" r="4" fill="#FFC93C" stroke="#1F2A5A" stroke-width="3"/><rect x="38" y="112" width="13" height="22" rx="6.5" fill="#7CC7FF" stroke="#1F2A5A" stroke-width="3"/><rect x="98" y="40" width="26" height="260" rx="4" fill="#FFF4E0" stroke="#1F2A5A" stroke-width="4" stroke-linejoin="round"/><rect x="91" y="72" width="40" height="10" rx="5" fill="#5ED3A3" stroke="#1F2A5A" stroke-width="4" stroke-linejoin="round"/><path d="M98 42Q111 4 124 42Z" fill="#5ED3A3" stroke="#1F2A5A" stroke-width="4" stroke-linejoin="round"/><circle cx="111" cy="17" r="4" fill="#FFC93C" stroke="#1F2A5A" stroke-width="3"/><rect x="104.5" y="96" width="13" height="20" rx="6.5" fill="#7CC7FF" stroke="#1F2A5A" stroke-width="3"/><rect x="138" y="94" width="120" height="210" fill="#FFF4E0" stroke="#1F2A5A" stroke-width="4" stroke-linejoin="round"/><rect x="152" y="78" width="92" height="18" rx="5" fill="#FFF4E0" stroke="#1F2A5A" stroke-width="4" stroke-linejoin="round"/><path d="M148 80Q148 22 198 16Q248 22 248 80Z" fill="#5ED3A3" stroke="#1F2A5A" stroke-width="4" stroke-linejoin="round"/><path d="M170 72Q172 40 198 34" fill="none" stroke="#FFFFFF" stroke-opacity="0.45" stroke-width="5" stroke-linecap="round"/><path d="M198 16V4" stroke="#1F2A5A" stroke-width="3.5" stroke-linecap="round"/><path d="M203 -9A7 7 0 1 0 204 3 5.6 5.6 0 1 1 203 -9Z" fill="#FFC93C" stroke="#1F2A5A" stroke-width="2.5" stroke-linejoin="round"/><rect x="154" y="112" width="13" height="22" rx="6.5" fill="#7CC7FF" stroke="#1F2A5A" stroke-width="3"/><rect x="229" y="112" width="13" height="22" rx="6.5" fill="#7CC7FF" stroke="#1F2A5A" stroke-width="3"/><rect x="191.5" y="112" width="13" height="22" rx="6.5" fill="#7CC7FF" stroke="#1F2A5A" stroke-width="3"/><rect x="270" y="100" width="112" height="210" fill="#FFF4E0" stroke="#1F2A5A" stroke-width="4" stroke-linejoin="round"/><path d="M278 102Q326 50 374 102Z" fill="#FF7BAC" stroke="#1F2A5A" stroke-width="4" stroke-linejoin="round"/><path d="M326 76V64" stroke="#1F2A5A" stroke-width="3.5" stroke-linecap="round"/><circle cx="326" cy="60" r="4" fill="#FFC93C" stroke="#1F2A5A" stroke-width="3"/><rect x="290" y="120" width="13" height="22" rx="6.5" fill="#7CC7FF" stroke="#1F2A5A" stroke-width="3"/><rect x="350" y="120" width="13" height="22" rx="6.5" fill="#7CC7FF" stroke="#1F2A5A" stroke-width="3"/></svg>
